<svg class="rich-terminal" viewBox="0 0 994 733.1999999999999" xmlns="http://www.w3.org/2000/svg">
    <!-- Generated with Rich https://www.textualize.io -->
    <style>

    @font-face {
        font-family: "Fira Code";
        src: local("FiraCode-Regular"),
                url("https://cdnjs.cloudflare.com/ajax/libs/firacode/6.2.0/woff2/FiraCode-Regular.woff2") format("woff2"),
                url("https://cdnjs.cloudflare.com/ajax/libs/firacode/6.2.0/woff/FiraCode-Regular.woff") format("woff");
        font-style: normal;
        font-weight: 400;
    }
    @font-face {
        font-family: "Fira Code";
        src: local("FiraCode-Bold"),
                url("https://cdnjs.cloudflare.com/ajax/libs/firacode/6.2.0/woff2/FiraCode-Bold.woff2") format("woff2"),
                url("https://cdnjs.cloudflare.com/ajax/libs/firacode/6.2.0/woff/FiraCode-Bold.woff") format("woff");
        font-style: bold;
        font-weight: 700;
    }

    .terminal-753359632-matrix {
        font-family: Fira Code, monospace;
        font-size: 20px;
        line-height: 24.4px;
        font-variant-east-asian: full-width;
    }

    .terminal-753359632-title {
        font-size: 18px;
        font-weight: bold;
        font-family: arial;
    }

    .terminal-753359632-r1 { fill: #c5c8c6 }
.terminal-753359632-r2 { fill: #989898 }
.terminal-753359632-r3 { fill: #eaeaea;font-weight: bold }
.terminal-753359632-r4 { fill: #141414 }
.terminal-753359632-r5 { fill: #090909 }
.terminal-753359632-r6 { fill: #f4f4f4 }
.terminal-753359632-r7 { fill: #828282 }
.terminal-753359632-r8 { fill: #f4f4f4;font-weight: bold }
.terminal-753359632-r9 { fill: #868686 }
.terminal-753359632-r10 { fill: #eaeaea }
.terminal-753359632-r11 { fill: #a4a4a4 }
    </style>

    <defs>
    <clipPath id="terminal-753359632-clip-terminal">
      <rect x="0" y="0" width="975.0" height="682.1999999999999" />
    </clipPath>
    <clipPath id="terminal-753359632-line-0">
    <rect x="0" y="1.5" width="976" height="24.65"/>
            </clipPath>
<clipPath id="terminal-753359632-line-1">
    <rect x="0" y="25.9" width="976" height="24.65"/>
            </clipPath>
<clipPath id="terminal-753359632-line-2">
    <rect x="0" y="50.3" width="976" height="24.65"/>
            </clipPath>
<clipPath id="terminal-753359632-line-3">
    <rect x="0" y="74.7" width="976" height="24.65"/>
            </clipPath>
<clipPath id="terminal-753359632-line-4">
    <rect x="0" y="99.1" width="976" height="24.65"/>
            </clipPath>
<clipPath id="terminal-753359632-line-5">
    <rect x="0" y="123.5" width="976" height="24.65"/>
            </clipPath>
<clipPath id="terminal-753359632-line-6">
    <rect x="0" y="147.9" width="976" height="24.65"/>
            </clipPath>
<clipPath id="terminal-753359632-line-7">
    <rect x="0" y="172.3" width="976" height="24.65"/>
            </clipPath>
<clipPath id="terminal-753359632-line-8">
    <rect x="0" y="196.7" width="976" height="24.65"/>
            </clipPath>
<clipPath id="terminal-753359632-line-9">
    <rect x="0" y="221.1" width="976" height="24.65"/>
            </clipPath>
<clipPath id="terminal-753359632-line-10">
    <rect x="0" y="245.5" width="976" height="24.65"/>
            </clipPath>
<clipPath id="terminal-753359632-line-11">
    <rect x="0" y="269.9" width="976" height="24.65"/>
            </clipPath>
<clipPath id="terminal-753359632-line-12">
    <rect x="0" y="294.3" width="976" height="24.65"/>
            </clipPath>
<clipPath id="terminal-753359632-line-13">
    <rect x="0" y="318.7" width="976" height="24.65"/>
            </clipPath>
<clipPath id="terminal-753359632-line-14">
    <rect x="0" y="343.1" width="976" height="24.65"/>
            </clipPath>
<clipPath id="terminal-753359632-line-15">
    <rect x="0" y="367.5" width="976" height="24.65"/>
            </clipPath>
<clipPath id="terminal-753359632-line-16">
    <rect x="0" y="391.9" width="976" height="24.65"/>
            </clipPath>
<clipPath id="terminal-753359632-line-17">
    <rect x="0" y="416.3" width="976" height="24.65"/>
            </clipPath>
<clipPath id="terminal-753359632-line-18">
    <rect x="0" y="440.7" width="976" height="24.65"/>
            </clipPath>
<clipPath id="terminal-753359632-line-19">
    <rect x="0" y="465.1" width="976" height="24.65"/>
            </clipPath>
<clipPath id="terminal-753359632-line-20">
    <rect x="0" y="489.5" width="976" height="24.65"/>
            </clipPath>
<clipPath id="terminal-753359632-line-21">
    <rect x="0" y="513.9" width="976" height="24.65"/>
            </clipPath>
<clipPath id="terminal-753359632-line-22">
    <rect x="0" y="538.3" width="976" height="24.65"/>
            </clipPath>
<clipPath id="terminal-753359632-line-23">
    <rect x="0" y="562.7" width="976" height="24.65"/>
            </clipPath>
<clipPath id="terminal-753359632-line-24">
    <rect x="0" y="587.1" width="976" height="24.65"/>
            </clipPath>
<clipPath id="terminal-753359632-line-25">
    <rect x="0" y="611.5" width="976" height="24.65"/>
            </clipPath>
<clipPath id="terminal-753359632-line-26">
    <rect x="0" y="635.9" width="976" height="24.65"/>
            </clipPath>
    </defs>

    <rect fill="#292929" stroke="rgba(255,255,255,0.35)" stroke-width="1" x="1" y="1" width="992" height="731.2" rx="8"/><text class="terminal-753359632-title" fill="#c5c8c6" text-anchor="middle" x="496" y="27">DJcode</text>
            <g transform="translate(26,22)">
            <circle cx="0" cy="0" r="7" fill="#ff5f57"/>
            <circle cx="22" cy="0" r="7" fill="#febc2e"/>
            <circle cx="44" cy="0" r="7" fill="#28c840"/>
            </g>

    <g transform="translate(9, 41)" clip-path="url(#terminal-753359632-clip-terminal)">
    <rect fill="#080808" x="0" y="1.5" width="976" height="24.65" shape-rendering="crispEdges"/><rect fill="#080808" x="0" y="25.9" width="24.4" height="24.65" shape-rendering="crispEdges"/><rect fill="#141414" x="24.4" y="25.9" width="12.2" height="24.65" shape-rendering="crispEdges"/><rect fill="#141414" x="36.6" y="25.9" width="902.8" height="24.65" shape-rendering="crispEdges"/><rect fill="#141414" x="939.4" y="25.9" width="12.2" height="24.65" shape-rendering="crispEdges"/><rect fill="#080808" x="951.6" y="25.9" width="24.4" height="24.65" shape-rendering="crispEdges"/><rect fill="#080808" x="0" y="50.3" width="24.4" height="24.65" shape-rendering="crispEdges"/><rect fill="#141414" x="24.4" y="50.3" width="12.2" height="24.65" shape-rendering="crispEdges"/><rect fill="#141414" x="36.6" y="50.3" width="12.2" height="24.65" shape-rendering="crispEdges"/><rect fill="#141414" x="48.8" y="50.3" width="366" height="24.65" shape-rendering="crispEdges"/><rect fill="#141414" x="414.8" y="50.3" width="512.4" height="24.65" shape-rendering="crispEdges"/><rect fill="#141414" x="927.2" y="50.3" width="12.2" height="24.65" shape-rendering="crispEdges"/><rect fill="#141414" x="939.4" y="50.3" width="12.2" height="24.65" shape-rendering="crispEdges"/><rect fill="#080808" x="951.6" y="50.3" width="24.4" height="24.65" shape-rendering="crispEdges"/><rect fill="#080808" x="0" y="74.7" width="24.4" height="24.65" shape-rendering="crispEdges"/><rect fill="#141414" x="24.4" y="74.7" width="12.2" height="24.65" shape-rendering="crispEdges"/><rect fill="#141414" x="36.6" y="74.7" width="12.2" height="24.65" shape-rendering="crispEdges"/><rect fill="#090909" x="48.8" y="74.7" width="12.2" height="24.65" shape-rendering="crispEdges"/><rect fill="#111111" x="61" y="74.7" width="854" height="24.65" shape-rendering="crispEdges"/><rect fill="#141414" x="915" y="74.7" width="12.2" height="24.65" shape-rendering="crispEdges"/><rect fill="#141414" x="927.2" y="74.7" width="12.2" height="24.65" shape-rendering="crispEdges"/><rect fill="#141414" x="939.4" y="74.7" width="12.2" height="24.65" shape-rendering="crispEdges"/><rect fill="#080808" x="951.6" y="74.7" width="24.4" height="24.65" shape-rendering="crispEdges"/><rect fill="#080808" x="0" y="99.1" width="24.4" height="24.65" shape-rendering="crispEdges"/><rect fill="#141414" x="24.4" y="99.1" width="12.2" height="24.65" shape-rendering="crispEdges"/><rect fill="#141414" x="36.6" y="99.1" width="12.2" height="24.65" shape-rendering="crispEdges"/><rect fill="#090909" x="48.8" y="99.1" width="12.2" height="24.65" shape-rendering="crispEdges"/><rect fill="#111111" x="61" y="99.1" width="24.4" height="24.65" shape-rendering="crispEdges"/><rect fill="#111111" x="85.4" y="99.1" width="122" height="24.65" shape-rendering="crispEdges"/><rect fill="#111111" x="207.4" y="99.1" width="658.8" height="24.65" shape-rendering="crispEdges"/><rect fill="#111111" x="866.2" y="99.1" width="12.2" height="24.65" shape-rendering="crispEdges"/><rect fill="#111111" x="878.4" y="99.1" width="12.2" height="24.65" shape-rendering="crispEdges"/><rect fill="#111111" x="890.6" y="99.1" width="24.4" height="24.65" shape-rendering="crispEdges"/><rect fill="#141414" x="915" y="99.1" width="12.2" height="24.65" shape-rendering="crispEdges"/><rect fill="#141414" x="927.2" y="99.1" width="12.2" height="24.65" shape-rendering="crispEdges"/><rect fill="#141414" x="939.4" y="99.1" width="12.2" height="24.65" shape-rendering="crispEdges"/><rect fill="#080808" x="951.6" y="99.1" width="24.4" height="24.65" shape-rendering="crispEdges"/><rect fill="#080808" x="0" y="123.5" width="24.4" height="24.65" shape-rendering="crispEdges"/><rect fill="#141414" x="24.4" y="123.5" width="12.2" height="24.65" shape-rendering="crispEdges"/><rect fill="#141414" x="36.6" y="123.5" width="12.2" height="24.65" shape-rendering="crispEdges"/><rect fill="#090909" x="48.8" y="123.5" width="12.2" height="24.65" shape-rendering="crispEdges"/><rect fill="#111111" x="61" y="123.5" width="854" height="24.65" shape-rendering="crispEdges"/><rect fill="#141414" x="915" y="123.5" width="12.2" height="24.65" shape-rendering="crispEdges"/><rect fill="#141414" x="927.2" y="123.5" width="12.2" height="24.65" shape-rendering="crispEdges"/><rect fill="#141414" x="939.4" y="123.5" width="12.2" height="24.65" shape-rendering="crispEdges"/><rect fill="#080808" x="951.6" y="123.5" width="24.4" height="24.65" shape-rendering="crispEdges"/><rect fill="#080808" x="0" y="147.9" width="24.4" height="24.65" shape-rendering="crispEdges"/><rect fill="#141414" x="24.4" y="147.9" width="12.2" height="24.65" shape-rendering="crispEdges"/><rect fill="#141414" x="36.6" y="147.9" width="12.2" height="24.65" shape-rendering="crispEdges"/><rect fill="#1c1c1c" x="48.8" y="147.9" width="12.2" height="24.65" shape-rendering="crispEdges"/><rect fill="#1c1c1c" x="61" y="147.9" width="854" height="24.65" shape-rendering="crispEdges"/><rect fill="#1c1c1c" x="915" y="147.9" width="12.2" height="24.65" shape-rendering="crispEdges"/><rect fill="#141414" x="927.2" y="147.9" width="12.2" height="24.65" shape-rendering="crispEdges"/><rect fill="#141414" x="939.4" y="147.9" width="12.2" height="24.65" shape-rendering="crispEdges"/><rect fill="#080808" x="951.6" y="147.9" width="24.4" height="24.65" shape-rendering="crispEdges"/><rect fill="#080808" x="0" y="172.3" width="24.4" height="24.65" shape-rendering="crispEdges"/><rect fill="#141414" x="24.4" y="172.3" width="12.2" height="24.65" shape-rendering="crispEdges"/><rect fill="#141414" x="36.6" y="172.3" width="12.2" height="24.65" shape-rendering="crispEdges"/><rect fill="#1c1c1c" x="48.8" y="172.3" width="12.2" height="24.65" shape-rendering="crispEdges"/><rect fill="#1c1c1c" x="61" y="172.3" width="24.4" height="24.65" shape-rendering="crispEdges"/><rect fill="#b3b3b3" x="85.4" y="172.3" width="12.2" height="24.65" shape-rendering="crispEdges"/><rect fill="#1c1c1c" x="97.6" y="172.3" width="268.4" height="24.65" shape-rendering="crispEdges"/><rect fill="#1c1c1c" x="366" y="172.3" width="524.6" height="24.65" shape-rendering="crispEdges"/><rect fill="#1c1c1c" x="890.6" y="172.3" width="24.4" height="24.65" shape-rendering="crispEdges"/><rect fill="#1c1c1c" x="915" y="172.3" width="12.2" height="24.65" shape-rendering="crispEdges"/><rect fill="#141414" x="927.2" y="172.3" width="12.2" height="24.65" shape-rendering="crispEdges"/><rect fill="#141414" x="939.4" y="172.3" width="12.2" height="24.65" shape-rendering="crispEdges"/><rect fill="#080808" x="951.6" y="172.3" width="24.4" height="24.65" shape-rendering="crispEdges"/><rect fill="#080808" x="0" y="196.7" width="24.4" height="24.65" shape-rendering="crispEdges"/><rect fill="#141414" x="24.4" y="196.7" width="12.2" height="24.65" shape-rendering="crispEdges"/><rect fill="#141414" x="36.6" y="196.7" width="12.2" height="24.65" shape-rendering="crispEdges"/><rect fill="#1c1c1c" x="48.8" y="196.7" width="12.2" height="24.65" shape-rendering="crispEdges"/><rect fill="#1c1c1c" x="61" y="196.7" width="854" height="24.65" shape-rendering="crispEdges"/><rect fill="#1c1c1c" x="915" y="196.7" width="12.2" height="24.65" shape-rendering="crispEdges"/><rect fill="#141414" x="927.2" y="196.7" width="12.2" height="24.65" shape-rendering="crispEdges"/><rect fill="#141414" x="939.4" y="196.7" width="12.2" height="24.65" shape-rendering="crispEdges"/><rect fill="#080808" x="951.6" y="196.7" width="24.4" height="24.65" shape-rendering="crispEdges"/><rect fill="#080808" x="0" y="221.1" width="24.4" height="24.65" shape-rendering="crispEdges"/><rect fill="#141414" x="24.4" y="221.1" width="12.2" height="24.65" shape-rendering="crispEdges"/><rect fill="#141414" x="36.6" y="221.1" width="12.2" height="24.65" shape-rendering="crispEdges"/><rect fill="#141414" x="48.8" y="221.1" width="317.2" height="24.65" shape-rendering="crispEdges"/><rect fill="#141414" x="366" y="221.1" width="561.2" height="24.65" shape-rendering="crispEdges"/><rect fill="#141414" x="927.2" y="221.1" width="12.2" height="24.65" shape-rendering="crispEdges"/><rect fill="#141414" x="939.4" y="221.1" width="12.2" height="24.65" shape-rendering="crispEdges"/><rect fill="#080808" x="951.6" y="221.1" width="24.4" height="24.65" shape-rendering="crispEdges"/><rect fill="#080808" x="0" y="245.5" width="24.4" height="24.65" shape-rendering="crispEdges"/><rect fill="#141414" x="24.4" y="245.5" width="12.2" height="24.65" shape-rendering="crispEdges"/><rect fill="#141414" x="36.6" y="245.5" width="12.2" height="24.65" shape-rendering="crispEdges"/><rect fill="#090909" x="48.8" y="245.5" width="12.2" height="24.65" shape-rendering="crispEdges"/><rect fill="#101010" x="61" y="245.5" width="854" height="24.65" shape-rendering="crispEdges"/><rect fill="#141414" x="915" y="245.5" width="12.2" height="24.65" shape-rendering="crispEdges"/><rect fill="#141414" x="927.2" y="245.5" width="12.2" height="24.65" shape-rendering="crispEdges"/><rect fill="#141414" x="939.4" y="245.5" width="12.2" height="24.65" shape-rendering="crispEdges"/><rect fill="#080808" x="951.6" y="245.5" width="24.4" height="24.65" shape-rendering="crispEdges"/><rect fill="#080808" x="0" y="269.9" width="24.4" height="24.65" shape-rendering="crispEdges"/><rect fill="#141414" x="24.4" y="269.9" width="12.2" height="24.65" shape-rendering="crispEdges"/><rect fill="#141414" x="36.6" y="269.9" width="12.2" height="24.65" shape-rendering="crispEdges"/><rect fill="#090909" x="48.8" y="269.9" width="12.2" height="24.65" shape-rendering="crispEdges"/><rect fill="#101010" x="61" y="269.9" width="12.2" height="24.65" shape-rendering="crispEdges"/><rect fill="#2a2a2a" x="73.2" y="269.9" width="475.8" height="24.65" shape-rendering="crispEdges"/><rect fill="#2a2a2a" x="549" y="269.9" width="353.8" height="24.65" shape-rendering="crispEdges"/><rect fill="#101010" x="902.8" y="269.9" width="12.2" height="24.65" shape-rendering="crispEdges"/><rect fill="#141414" x="915" y="269.9" width="12.2" height="24.65" shape-rendering="crispEdges"/><rect fill="#141414" x="927.2" y="269.9" width="12.2" height="24.65" shape-rendering="crispEdges"/><rect fill="#141414" x="939.4" y="269.9" width="12.2" height="24.65" shape-rendering="crispEdges"/><rect fill="#080808" x="951.6" y="269.9" width="24.4" height="24.65" shape-rendering="crispEdges"/><rect fill="#080808" x="0" y="294.3" width="24.4" height="24.65" shape-rendering="crispEdges"/><rect fill="#141414" x="24.4" y="294.3" width="12.2" height="24.65" shape-rendering="crispEdges"/><rect fill="#141414" x="36.6" y="294.3" width="12.2" height="24.65" shape-rendering="crispEdges"/><rect fill="#090909" x="48.8" y="294.3" width="12.2" height="24.65" shape-rendering="crispEdges"/><rect fill="#101010" x="61" y="294.3" width="12.2" height="24.65" shape-rendering="crispEdges"/><rect fill="#101010" x="73.2" y="294.3" width="549" height="24.65" shape-rendering="crispEdges"/><rect fill="#101010" x="622.2" y="294.3" width="280.6" height="24.65" shape-rendering="crispEdges"/><rect fill="#101010" x="902.8" y="294.3" width="12.2" height="24.65" shape-rendering="crispEdges"/><rect fill="#141414" x="915" y="294.3" width="12.2" height="24.65" shape-rendering="crispEdges"/><rect fill="#141414" x="927.2" y="294.3" width="12.2" height="24.65" shape-rendering="crispEdges"/><rect fill="#141414" x="939.4" y="294.3" width="12.2" height="24.65" shape-rendering="crispEdges"/><rect fill="#080808" x="951.6" y="294.3" width="24.4" height="24.65" shape-rendering="crispEdges"/><rect fill="#080808" x="0" y="318.7" width="24.4" height="24.65" shape-rendering="crispEdges"/><rect fill="#141414" x="24.4" y="318.7" width="12.2" height="24.65" shape-rendering="crispEdges"/><rect fill="#141414" x="36.6" y="318.7" width="12.2" height="24.65" shape-rendering="crispEdges"/><rect fill="#090909" x="48.8" y="318.7" width="12.2" height="24.65" shape-rendering="crispEdges"/><rect fill="#101010" x="61" y="318.7" width="12.2" height="24.65" shape-rendering="crispEdges"/><rect fill="#101010" x="73.2" y="318.7" width="829.6" height="24.65" shape-rendering="crispEdges"/><rect fill="#101010" x="902.8" y="318.7" width="12.2" height="24.65" shape-rendering="crispEdges"/><rect fill="#141414" x="915" y="318.7" width="12.2" height="24.65" shape-rendering="crispEdges"/><rect fill="#141414" x="927.2" y="318.7" width="12.2" height="24.65" shape-rendering="crispEdges"/><rect fill="#141414" x="939.4" y="318.7" width="12.2" height="24.65" shape-rendering="crispEdges"/><rect fill="#080808" x="951.6" y="318.7" width="24.4" height="24.65" shape-rendering="crispEdges"/><rect fill="#080808" x="0" y="343.1" width="24.4" height="24.65" shape-rendering="crispEdges"/><rect fill="#141414" x="24.4" y="343.1" width="12.2" height="24.65" shape-rendering="crispEdges"/><rect fill="#141414" x="36.6" y="343.1" width="12.2" height="24.65" shape-rendering="crispEdges"/><rect fill="#090909" x="48.8" y="343.1" width="12.2" height="24.65" shape-rendering="crispEdges"/><rect fill="#101010" x="61" y="343.1" width="12.2" height="24.65" shape-rendering="crispEdges"/><rect fill="#101010" x="73.2" y="343.1" width="829.6" height="24.65" shape-rendering="crispEdges"/><rect fill="#101010" x="902.8" y="343.1" width="12.2" height="24.65" shape-rendering="crispEdges"/><rect fill="#141414" x="915" y="343.1" width="12.2" height="24.65" shape-rendering="crispEdges"/><rect fill="#141414" x="927.2" y="343.1" width="12.2" height="24.65" shape-rendering="crispEdges"/><rect fill="#141414" x="939.4" y="343.1" width="12.2" height="24.65" shape-rendering="crispEdges"/><rect fill="#080808" x="951.6" y="343.1" width="24.4" height="24.65" shape-rendering="crispEdges"/><rect fill="#080808" x="0" y="367.5" width="24.4" height="24.65" shape-rendering="crispEdges"/><rect fill="#141414" x="24.4" y="367.5" width="12.2" height="24.65" shape-rendering="crispEdges"/><rect fill="#141414" x="36.6" y="367.5" width="12.2" height="24.65" shape-rendering="crispEdges"/><rect fill="#090909" x="48.8" y="367.5" width="12.2" height="24.65" shape-rendering="crispEdges"/><rect fill="#101010" x="61" y="367.5" width="12.2" height="24.65" shape-rendering="crispEdges"/><rect fill="#101010" x="73.2" y="367.5" width="829.6" height="24.65" shape-rendering="crispEdges"/><rect fill="#101010" x="902.8" y="367.5" width="12.2" height="24.65" shape-rendering="crispEdges"/><rect fill="#141414" x="915" y="367.5" width="12.2" height="24.65" shape-rendering="crispEdges"/><rect fill="#141414" x="927.2" y="367.5" width="12.2" height="24.65" shape-rendering="crispEdges"/><rect fill="#141414" x="939.4" y="367.5" width="12.2" height="24.65" shape-rendering="crispEdges"/><rect fill="#080808" x="951.6" y="367.5" width="24.4" height="24.65" shape-rendering="crispEdges"/><rect fill="#080808" x="0" y="391.9" width="24.4" height="24.65" shape-rendering="crispEdges"/><rect fill="#141414" x="24.4" y="391.9" width="12.2" height="24.65" shape-rendering="crispEdges"/><rect fill="#141414" x="36.6" y="391.9" width="12.2" height="24.65" shape-rendering="crispEdges"/><rect fill="#090909" x="48.8" y="391.9" width="12.2" height="24.65" shape-rendering="crispEdges"/><rect fill="#101010" x="61" y="391.9" width="12.2" height="24.65" shape-rendering="crispEdges"/><rect fill="#101010" x="73.2" y="391.9" width="829.6" height="24.65" shape-rendering="crispEdges"/><rect fill="#101010" x="902.8" y="391.9" width="12.2" height="24.65" shape-rendering="crispEdges"/><rect fill="#141414" x="915" y="391.9" width="12.2" height="24.65" shape-rendering="crispEdges"/><rect fill="#141414" x="927.2" y="391.9" width="12.2" height="24.65" shape-rendering="crispEdges"/><rect fill="#141414" x="939.4" y="391.9" width="12.2" height="24.65" shape-rendering="crispEdges"/><rect fill="#080808" x="951.6" y="391.9" width="24.4" height="24.65" shape-rendering="crispEdges"/><rect fill="#080808" x="0" y="416.3" width="24.4" height="24.65" shape-rendering="crispEdges"/><rect fill="#141414" x="24.4" y="416.3" width="12.2" height="24.65" shape-rendering="crispEdges"/><rect fill="#141414" x="36.6" y="416.3" width="12.2" height="24.65" shape-rendering="crispEdges"/><rect fill="#090909" x="48.8" y="416.3" width="12.2" height="24.65" shape-rendering="crispEdges"/><rect fill="#101010" x="61" y="416.3" width="12.2" height="24.65" shape-rendering="crispEdges"/><rect fill="#101010" x="73.2" y="416.3" width="829.6" height="24.65" shape-rendering="crispEdges"/><rect fill="#101010" x="902.8" y="416.3" width="12.2" height="24.65" shape-rendering="crispEdges"/><rect fill="#141414" x="915" y="416.3" width="12.2" height="24.65" shape-rendering="crispEdges"/><rect fill="#141414" x="927.2" y="416.3" width="12.2" height="24.65" shape-rendering="crispEdges"/><rect fill="#141414" x="939.4" y="416.3" width="12.2" height="24.65" shape-rendering="crispEdges"/><rect fill="#080808" x="951.6" y="416.3" width="24.4" height="24.65" shape-rendering="crispEdges"/><rect fill="#080808" x="0" y="440.7" width="24.4" height="24.65" shape-rendering="crispEdges"/><rect fill="#141414" x="24.4" y="440.7" width="12.2" height="24.65" shape-rendering="crispEdges"/><rect fill="#141414" x="36.6" y="440.7" width="12.2" height="24.65" shape-rendering="crispEdges"/><rect fill="#090909" x="48.8" y="440.7" width="12.2" height="24.65" shape-rendering="crispEdges"/><rect fill="#101010" x="61" y="440.7" width="12.2" height="24.65" shape-rendering="crispEdges"/><rect fill="#101010" x="73.2" y="440.7" width="829.6" height="24.65" shape-rendering="crispEdges"/><rect fill="#101010" x="902.8" y="440.7" width="12.2" height="24.65" shape-rendering="crispEdges"/><rect fill="#141414" x="915" y="440.7" width="12.2" height="24.65" shape-rendering="crispEdges"/><rect fill="#141414" x="927.2" y="440.7" width="12.2" height="24.65" shape-rendering="crispEdges"/><rect fill="#141414" x="939.4" y="440.7" width="12.2" height="24.65" shape-rendering="crispEdges"/><rect fill="#080808" x="951.6" y="440.7" width="24.4" height="24.65" shape-rendering="crispEdges"/><rect fill="#080808" x="0" y="465.1" width="24.4" height="24.65" shape-rendering="crispEdges"/><rect fill="#141414" x="24.4" y="465.1" width="12.2" height="24.65" shape-rendering="crispEdges"/><rect fill="#141414" x="36.6" y="465.1" width="12.2" height="24.65" shape-rendering="crispEdges"/><rect fill="#090909" x="48.8" y="465.1" width="12.2" height="24.65" shape-rendering="crispEdges"/><rect fill="#101010" x="61" y="465.1" width="12.2" height="24.65" shape-rendering="crispEdges"/><rect fill="#101010" x="73.2" y="465.1" width="829.6" height="24.65" shape-rendering="crispEdges"/><rect fill="#101010" x="902.8" y="465.1" width="12.2" height="24.65" shape-rendering="crispEdges"/><rect fill="#141414" x="915" y="465.1" width="12.2" height="24.65" shape-rendering="crispEdges"/><rect fill="#141414" x="927.2" y="465.1" width="12.2" height="24.65" shape-rendering="crispEdges"/><rect fill="#141414" x="939.4" y="465.1" width="12.2" height="24.65" shape-rendering="crispEdges"/><rect fill="#080808" x="951.6" y="465.1" width="24.4" height="24.65" shape-rendering="crispEdges"/><rect fill="#080808" x="0" y="489.5" width="24.4" height="24.65" shape-rendering="crispEdges"/><rect fill="#141414" x="24.4" y="489.5" width="12.2" height="24.65" shape-rendering="crispEdges"/><rect fill="#141414" x="36.6" y="489.5" width="12.2" height="24.65" shape-rendering="crispEdges"/><rect fill="#090909" x="48.8" y="489.5" width="12.2" height="24.65" shape-rendering="crispEdges"/><rect fill="#101010" x="61" y="489.5" width="12.2" height="24.65" shape-rendering="crispEdges"/><rect fill="#101010" x="73.2" y="489.5" width="829.6" height="24.65" shape-rendering="crispEdges"/><rect fill="#101010" x="902.8" y="489.5" width="12.2" height="24.65" shape-rendering="crispEdges"/><rect fill="#141414" x="915" y="489.5" width="12.2" height="24.65" shape-rendering="crispEdges"/><rect fill="#141414" x="927.2" y="489.5" width="12.2" height="24.65" shape-rendering="crispEdges"/><rect fill="#141414" x="939.4" y="489.5" width="12.2" height="24.65" shape-rendering="crispEdges"/><rect fill="#080808" x="951.6" y="489.5" width="24.4" height="24.65" shape-rendering="crispEdges"/><rect fill="#080808" x="0" y="513.9" width="24.4" height="24.65" shape-rendering="crispEdges"/><rect fill="#141414" x="24.4" y="513.9" width="12.2" height="24.65" shape-rendering="crispEdges"/><rect fill="#141414" x="36.6" y="513.9" width="12.2" height="24.65" shape-rendering="crispEdges"/><rect fill="#090909" x="48.8" y="513.9" width="12.2" height="24.65" shape-rendering="crispEdges"/><rect fill="#101010" x="61" y="513.9" width="12.2" height="24.65" shape-rendering="crispEdges"/><rect fill="#101010" x="73.2" y="513.9" width="829.6" height="24.65" shape-rendering="crispEdges"/><rect fill="#101010" x="902.8" y="513.9" width="12.2" height="24.65" shape-rendering="crispEdges"/><rect fill="#141414" x="915" y="513.9" width="12.2" height="24.65" shape-rendering="crispEdges"/><rect fill="#141414" x="927.2" y="513.9" width="12.2" height="24.65" shape-rendering="crispEdges"/><rect fill="#141414" x="939.4" y="513.9" width="12.2" height="24.65" shape-rendering="crispEdges"/><rect fill="#080808" x="951.6" y="513.9" width="24.4" height="24.65" shape-rendering="crispEdges"/><rect fill="#080808" x="0" y="538.3" width="24.4" height="24.65" shape-rendering="crispEdges"/><rect fill="#141414" x="24.4" y="538.3" width="12.2" height="24.65" shape-rendering="crispEdges"/><rect fill="#141414" x="36.6" y="538.3" width="12.2" height="24.65" shape-rendering="crispEdges"/><rect fill="#090909" x="48.8" y="538.3" width="12.2" height="24.65" shape-rendering="crispEdges"/><rect fill="#101010" x="61" y="538.3" width="854" height="24.65" shape-rendering="crispEdges"/><rect fill="#141414" x="915" y="538.3" width="12.2" height="24.65" shape-rendering="crispEdges"/><rect fill="#141414" x="927.2" y="538.3" width="12.2" height="24.65" shape-rendering="crispEdges"/><rect fill="#141414" x="939.4" y="538.3" width="12.2" height="24.65" shape-rendering="crispEdges"/><rect fill="#080808" x="951.6" y="538.3" width="24.4" height="24.65" shape-rendering="crispEdges"/><rect fill="#080808" x="0" y="562.7" width="24.4" height="24.65" shape-rendering="crispEdges"/><rect fill="#141414" x="24.4" y="562.7" width="12.2" height="24.65" shape-rendering="crispEdges"/><rect fill="#141414" x="36.6" y="562.7" width="12.2" height="24.65" shape-rendering="crispEdges"/><rect fill="#141414" x="48.8" y="562.7" width="317.2" height="24.65" shape-rendering="crispEdges"/><rect fill="#141414" x="366" y="562.7" width="561.2" height="24.65" shape-rendering="crispEdges"/><rect fill="#141414" x="927.2" y="562.7" width="12.2" height="24.65" shape-rendering="crispEdges"/><rect fill="#141414" x="939.4" y="562.7" width="12.2" height="24.65" shape-rendering="crispEdges"/><rect fill="#080808" x="951.6" y="562.7" width="24.4" height="24.65" shape-rendering="crispEdges"/><rect fill="#080808" x="0" y="587.1" width="24.4" height="24.65" shape-rendering="crispEdges"/><rect fill="#141414" x="24.4" y="587.1" width="12.2" height="24.65" shape-rendering="crispEdges"/><rect fill="#141414" x="36.6" y="587.1" width="12.2" height="24.65" shape-rendering="crispEdges"/><rect fill="#141414" x="48.8" y="587.1" width="695.4" height="24.65" shape-rendering="crispEdges"/><rect fill="#141414" x="744.2" y="587.1" width="183" height="24.65" shape-rendering="crispEdges"/><rect fill="#141414" x="927.2" y="587.1" width="12.2" height="24.65" shape-rendering="crispEdges"/><rect fill="#141414" x="939.4" y="587.1" width="12.2" height="24.65" shape-rendering="crispEdges"/><rect fill="#080808" x="951.6" y="587.1" width="24.4" height="24.65" shape-rendering="crispEdges"/><rect fill="#080808" x="0" y="611.5" width="24.4" height="24.65" shape-rendering="crispEdges"/><rect fill="#141414" x="24.4" y="611.5" width="12.2" height="24.65" shape-rendering="crispEdges"/><rect fill="#141414" x="36.6" y="611.5" width="902.8" height="24.65" shape-rendering="crispEdges"/><rect fill="#141414" x="939.4" y="611.5" width="12.2" height="24.65" shape-rendering="crispEdges"/><rect fill="#080808" x="951.6" y="611.5" width="24.4" height="24.65" shape-rendering="crispEdges"/><rect fill="#080808" x="0" y="635.9" width="976" height="24.65" shape-rendering="crispEdges"/><rect fill="#080808" x="0" y="660.3" width="976" height="24.65" shape-rendering="crispEdges"/>
    <g class="terminal-753359632-matrix">
    <text class="terminal-753359632-r1" x="976" y="20" textLength="12.2" clip-path="url(#terminal-753359632-line-0)">
</text><text class="terminal-753359632-r2" x="24.4" y="44.4" textLength="12.2" clip-path="url(#terminal-753359632-line-1)">╭</text><text class="terminal-753359632-r2" x="36.6" y="44.4" textLength="902.8" clip-path="url(#terminal-753359632-line-1)">──────────────────────────────────────────────────────────────────────────</text><text class="terminal-753359632-r2" x="939.4" y="44.4" textLength="12.2" clip-path="url(#terminal-753359632-line-1)">╮</text><text class="terminal-753359632-r1" x="976" y="44.4" textLength="12.2" clip-path="url(#terminal-753359632-line-1)">
</text><text class="terminal-753359632-r2" x="24.4" y="68.8" textLength="12.2" clip-path="url(#terminal-753359632-line-2)">│</text><text class="terminal-753359632-r3" x="48.8" y="68.8" textLength="366" clip-path="url(#terminal-753359632-line-2)">Models&#160;·&#160;live&#160;provider&#160;catalog</text><text class="terminal-753359632-r2" x="939.4" y="68.8" textLength="12.2" clip-path="url(#terminal-753359632-line-2)">│</text><text class="terminal-753359632-r1" x="976" y="68.8" textLength="12.2" clip-path="url(#terminal-753359632-line-2)">
</text><text class="terminal-753359632-r2" x="24.4" y="93.2" textLength="12.2" clip-path="url(#terminal-753359632-line-3)">│</text><text class="terminal-753359632-r4" x="48.8" y="93.2" textLength="12.2" clip-path="url(#terminal-753359632-line-3)">▊</text><text class="terminal-753359632-r5" x="61" y="93.2" textLength="854" clip-path="url(#terminal-753359632-line-3)">▔▔▔▔▔▔▔▔▔▔▔▔▔▔▔▔▔▔▔▔▔▔▔▔▔▔▔▔▔▔▔▔▔▔▔▔▔▔▔▔▔▔▔▔▔▔▔▔▔▔▔▔▔▔▔▔▔▔▔▔▔▔▔▔▔▔▔▔▔▔</text><text class="terminal-753359632-r5" x="915" y="93.2" textLength="12.2" clip-path="url(#terminal-753359632-line-3)">▎</text><text class="terminal-753359632-r2" x="939.4" y="93.2" textLength="12.2" clip-path="url(#terminal-753359632-line-3)">│</text><text class="terminal-753359632-r1" x="976" y="93.2" textLength="12.2" clip-path="url(#terminal-753359632-line-3)">
</text><text class="terminal-753359632-r2" x="24.4" y="117.6" textLength="12.2" clip-path="url(#terminal-753359632-line-4)">│</text><text class="terminal-753359632-r4" x="48.8" y="117.6" textLength="12.2" clip-path="url(#terminal-753359632-line-4)">▊</text><text class="terminal-753359632-r6" x="85.4" y="117.6" textLength="122" clip-path="url(#terminal-753359632-line-4)">OpenRouter</text><text class="terminal-753359632-r7" x="878.4" y="117.6" textLength="12.2" clip-path="url(#terminal-753359632-line-4)">▼</text><text class="terminal-753359632-r5" x="915" y="117.6" textLength="12.2" clip-path="url(#terminal-753359632-line-4)">▎</text><text class="terminal-753359632-r2" x="939.4" y="117.6" textLength="12.2" clip-path="url(#terminal-753359632-line-4)">│</text><text class="terminal-753359632-r1" x="976" y="117.6" textLength="12.2" clip-path="url(#terminal-753359632-line-4)">
</text><text class="terminal-753359632-r2" x="24.4" y="142" textLength="12.2" clip-path="url(#terminal-753359632-line-5)">│</text><text class="terminal-753359632-r4" x="48.8" y="142" textLength="12.2" clip-path="url(#terminal-753359632-line-5)">▊</text><text class="terminal-753359632-r5" x="61" y="142" textLength="854" clip-path="url(#terminal-753359632-line-5)">▁▁▁▁▁▁▁▁▁▁▁▁▁▁▁▁▁▁▁▁▁▁▁▁▁▁▁▁▁▁▁▁▁▁▁▁▁▁▁▁▁▁▁▁▁▁▁▁▁▁▁▁▁▁▁▁▁▁▁▁▁▁▁▁▁▁▁▁▁▁</text><text class="terminal-753359632-r5" x="915" y="142" textLength="12.2" clip-path="url(#terminal-753359632-line-5)">▎</text><text class="terminal-753359632-r2" x="939.4" y="142" textLength="12.2" clip-path="url(#terminal-753359632-line-5)">│</text><text class="terminal-753359632-r1" x="976" y="142" textLength="12.2" clip-path="url(#terminal-753359632-line-5)">
</text><text class="terminal-753359632-r2" x="24.4" y="166.4" textLength="12.2" clip-path="url(#terminal-753359632-line-6)">│</text><text class="terminal-753359632-r2" x="48.8" y="166.4" textLength="12.2" clip-path="url(#terminal-753359632-line-6)">╭</text><text class="terminal-753359632-r2" x="61" y="166.4" textLength="854" clip-path="url(#terminal-753359632-line-6)">──────────────────────────────────────────────────────────────────────</text><text class="terminal-753359632-r2" x="915" y="166.4" textLength="12.2" clip-path="url(#terminal-753359632-line-6)">╮</text><text class="terminal-753359632-r2" x="939.4" y="166.4" textLength="12.2" clip-path="url(#terminal-753359632-line-6)">│</text><text class="terminal-753359632-r1" x="976" y="166.4" textLength="12.2" clip-path="url(#terminal-753359632-line-6)">
</text><text class="terminal-753359632-r2" x="24.4" y="190.8" textLength="12.2" clip-path="url(#terminal-753359632-line-7)">│</text><text class="terminal-753359632-r2" x="48.8" y="190.8" textLength="12.2" clip-path="url(#terminal-753359632-line-7)">│</text><text class="terminal-753359632-r8" x="85.4" y="190.8" textLength="12.2" clip-path="url(#terminal-753359632-line-7)">S</text><text class="terminal-753359632-r9" x="97.6" y="190.8" textLength="268.4" clip-path="url(#terminal-753359632-line-7)">earch&#160;model&#160;ID&#160;or&#160;name</text><text class="terminal-753359632-r2" x="915" y="190.8" textLength="12.2" clip-path="url(#terminal-753359632-line-7)">│</text><text class="terminal-753359632-r2" x="939.4" y="190.8" textLength="12.2" clip-path="url(#terminal-753359632-line-7)">│</text><text class="terminal-753359632-r1" x="976" y="190.8" textLength="12.2" clip-path="url(#terminal-753359632-line-7)">
</text><text class="terminal-753359632-r2" x="24.4" y="215.2" textLength="12.2" clip-path="url(#terminal-753359632-line-8)">│</text><text class="terminal-753359632-r2" x="48.8" y="215.2" textLength="12.2" clip-path="url(#terminal-753359632-line-8)">╰</text><text class="terminal-753359632-r2" x="61" y="215.2" textLength="854" clip-path="url(#terminal-753359632-line-8)">──────────────────────────────────────────────────────────────────────</text><text class="terminal-753359632-r2" x="915" y="215.2" textLength="12.2" clip-path="url(#terminal-753359632-line-8)">╯</text><text class="terminal-753359632-r2" x="939.4" y="215.2" textLength="12.2" clip-path="url(#terminal-753359632-line-8)">│</text><text class="terminal-753359632-r1" x="976" y="215.2" textLength="12.2" clip-path="url(#terminal-753359632-line-8)">
</text><text class="terminal-753359632-r2" x="24.4" y="239.6" textLength="12.2" clip-path="url(#terminal-753359632-line-9)">│</text><text class="terminal-753359632-r11" x="48.8" y="239.6" textLength="317.2" clip-path="url(#terminal-753359632-line-9)">2&#160;models&#160;·&#160;fixture&#160;catalog</text><text class="terminal-753359632-r2" x="939.4" y="239.6" textLength="12.2" clip-path="url(#terminal-753359632-line-9)">│</text><text class="terminal-753359632-r1" x="976" y="239.6" textLength="12.2" clip-path="url(#terminal-753359632-line-9)">
</text><text class="terminal-753359632-r2" x="24.4" y="264" textLength="12.2" clip-path="url(#terminal-753359632-line-10)">│</text><text class="terminal-753359632-r4" x="48.8" y="264" textLength="12.2" clip-path="url(#terminal-753359632-line-10)">▊</text><text class="terminal-753359632-r5" x="61" y="264" textLength="854" clip-path="url(#terminal-753359632-line-10)">▔▔▔▔▔▔▔▔▔▔▔▔▔▔▔▔▔▔▔▔▔▔▔▔▔▔▔▔▔▔▔▔▔▔▔▔▔▔▔▔▔▔▔▔▔▔▔▔▔▔▔▔▔▔▔▔▔▔▔▔▔▔▔▔▔▔▔▔▔▔</text><text class="terminal-753359632-r5" x="915" y="264" textLength="12.2" clip-path="url(#terminal-753359632-line-10)">▎</text><text class="terminal-753359632-r2" x="939.4" y="264" textLength="12.2" clip-path="url(#terminal-753359632-line-10)">│</text><text class="terminal-753359632-r1" x="976" y="264" textLength="12.2" clip-path="url(#terminal-753359632-line-10)">
</text><text class="terminal-753359632-r2" x="24.4" y="288.4" textLength="12.2" clip-path="url(#terminal-753359632-line-11)">│</text><text class="terminal-753359632-r4" x="48.8" y="288.4" textLength="12.2" clip-path="url(#terminal-753359632-line-11)">▊</text><text class="terminal-753359632-r2" x="73.2" y="288.4" textLength="475.8" clip-path="url(#terminal-753359632-line-11)">fixture/Code-Large&#160;·&#160;Example&#160;code&#160;model</text><text class="terminal-753359632-r5" x="915" y="288.4" textLength="12.2" clip-path="url(#terminal-753359632-line-11)">▎</text><text class="terminal-753359632-r2" x="939.4" y="288.4" textLength="12.2" clip-path="url(#terminal-753359632-line-11)">│</text><text class="terminal-753359632-r1" x="976" y="288.4" textLength="12.2" clip-path="url(#terminal-753359632-line-11)">
</text><text class="terminal-753359632-r2" x="24.4" y="312.8" textLength="12.2" clip-path="url(#terminal-753359632-line-12)">│</text><text class="terminal-753359632-r4" x="48.8" y="312.8" textLength="12.2" clip-path="url(#terminal-753359632-line-12)">▊</text><text class="terminal-753359632-r6" x="73.2" y="312.8" textLength="549" clip-path="url(#terminal-753359632-line-12)">fixture/General-Small&#160;·&#160;Example&#160;general&#160;model</text><text class="terminal-753359632-r5" x="915" y="312.8" textLength="12.2" clip-path="url(#terminal-753359632-line-12)">▎</text><text class="terminal-753359632-r2" x="939.4" y="312.8" textLength="12.2" clip-path="url(#terminal-753359632-line-12)">│</text><text class="terminal-753359632-r1" x="976" y="312.8" textLength="12.2" clip-path="url(#terminal-753359632-line-12)">
</text><text class="terminal-753359632-r2" x="24.4" y="337.2" textLength="12.2" clip-path="url(#terminal-753359632-line-13)">│</text><text class="terminal-753359632-r4" x="48.8" y="337.2" textLength="12.2" clip-path="url(#terminal-753359632-line-13)">▊</text><text class="terminal-753359632-r5" x="915" y="337.2" textLength="12.2" clip-path="url(#terminal-753359632-line-13)">▎</text><text class="terminal-753359632-r2" x="939.4" y="337.2" textLength="12.2" clip-path="url(#terminal-753359632-line-13)">│</text><text class="terminal-753359632-r1" x="976" y="337.2" textLength="12.2" clip-path="url(#terminal-753359632-line-13)">
</text><text class="terminal-753359632-r2" x="24.4" y="361.6" textLength="12.2" clip-path="url(#terminal-753359632-line-14)">│</text><text class="terminal-753359632-r4" x="48.8" y="361.6" textLength="12.2" clip-path="url(#terminal-753359632-line-14)">▊</text><text class="terminal-753359632-r5" x="915" y="361.6" textLength="12.2" clip-path="url(#terminal-753359632-line-14)">▎</text><text class="terminal-753359632-r2" x="939.4" y="361.6" textLength="12.2" clip-path="url(#terminal-753359632-line-14)">│</text><text class="terminal-753359632-r1" x="976" y="361.6" textLength="12.2" clip-path="url(#terminal-753359632-line-14)">
</text><text class="terminal-753359632-r2" x="24.4" y="386" textLength="12.2" clip-path="url(#terminal-753359632-line-15)">│</text><text class="terminal-753359632-r4" x="48.8" y="386" textLength="12.2" clip-path="url(#terminal-753359632-line-15)">▊</text><text class="terminal-753359632-r5" x="915" y="386" textLength="12.2" clip-path="url(#terminal-753359632-line-15)">▎</text><text class="terminal-753359632-r2" x="939.4" y="386" textLength="12.2" clip-path="url(#terminal-753359632-line-15)">│</text><text class="terminal-753359632-r1" x="976" y="386" textLength="12.2" clip-path="url(#terminal-753359632-line-15)">
</text><text class="terminal-753359632-r2" x="24.4" y="410.4" textLength="12.2" clip-path="url(#terminal-753359632-line-16)">│</text><text class="terminal-753359632-r4" x="48.8" y="410.4" textLength="12.2" clip-path="url(#terminal-753359632-line-16)">▊</text><text class="terminal-753359632-r5" x="915" y="410.4" textLength="12.2" clip-path="url(#terminal-753359632-line-16)">▎</text><text class="terminal-753359632-r2" x="939.4" y="410.4" textLength="12.2" clip-path="url(#terminal-753359632-line-16)">│</text><text class="terminal-753359632-r1" x="976" y="410.4" textLength="12.2" clip-path="url(#terminal-753359632-line-16)">
</text><text class="terminal-753359632-r2" x="24.4" y="434.8" textLength="12.2" clip-path="url(#terminal-753359632-line-17)">│</text><text class="terminal-753359632-r4" x="48.8" y="434.8" textLength="12.2" clip-path="url(#terminal-753359632-line-17)">▊</text><text class="terminal-753359632-r5" x="915" y="434.8" textLength="12.2" clip-path="url(#terminal-753359632-line-17)">▎</text><text class="terminal-753359632-r2" x="939.4" y="434.8" textLength="12.2" clip-path="url(#terminal-753359632-line-17)">│</text><text class="terminal-753359632-r1" x="976" y="434.8" textLength="12.2" clip-path="url(#terminal-753359632-line-17)">
</text><text class="terminal-753359632-r2" x="24.4" y="459.2" textLength="12.2" clip-path="url(#terminal-753359632-line-18)">│</text><text class="terminal-753359632-r4" x="48.8" y="459.2" textLength="12.2" clip-path="url(#terminal-753359632-line-18)">▊</text><text class="terminal-753359632-r5" x="915" y="459.2" textLength="12.2" clip-path="url(#terminal-753359632-line-18)">▎</text><text class="terminal-753359632-r2" x="939.4" y="459.2" textLength="12.2" clip-path="url(#terminal-753359632-line-18)">│</text><text class="terminal-753359632-r1" x="976" y="459.2" textLength="12.2" clip-path="url(#terminal-753359632-line-18)">
</text><text class="terminal-753359632-r2" x="24.4" y="483.6" textLength="12.2" clip-path="url(#terminal-753359632-line-19)">│</text><text class="terminal-753359632-r4" x="48.8" y="483.6" textLength="12.2" clip-path="url(#terminal-753359632-line-19)">▊</text><text class="terminal-753359632-r5" x="915" y="483.6" textLength="12.2" clip-path="url(#terminal-753359632-line-19)">▎</text><text class="terminal-753359632-r2" x="939.4" y="483.6" textLength="12.2" clip-path="url(#terminal-753359632-line-19)">│</text><text class="terminal-753359632-r1" x="976" y="483.6" textLength="12.2" clip-path="url(#terminal-753359632-line-19)">
</text><text class="terminal-753359632-r2" x="24.4" y="508" textLength="12.2" clip-path="url(#terminal-753359632-line-20)">│</text><text class="terminal-753359632-r4" x="48.8" y="508" textLength="12.2" clip-path="url(#terminal-753359632-line-20)">▊</text><text class="terminal-753359632-r5" x="915" y="508" textLength="12.2" clip-path="url(#terminal-753359632-line-20)">▎</text><text class="terminal-753359632-r2" x="939.4" y="508" textLength="12.2" clip-path="url(#terminal-753359632-line-20)">│</text><text class="terminal-753359632-r1" x="976" y="508" textLength="12.2" clip-path="url(#terminal-753359632-line-20)">
</text><text class="terminal-753359632-r2" x="24.4" y="532.4" textLength="12.2" clip-path="url(#terminal-753359632-line-21)">│</text><text class="terminal-753359632-r4" x="48.8" y="532.4" textLength="12.2" clip-path="url(#terminal-753359632-line-21)">▊</text><text class="terminal-753359632-r5" x="915" y="532.4" textLength="12.2" clip-path="url(#terminal-753359632-line-21)">▎</text><text class="terminal-753359632-r2" x="939.4" y="532.4" textLength="12.2" clip-path="url(#terminal-753359632-line-21)">│</text><text class="terminal-753359632-r1" x="976" y="532.4" textLength="12.2" clip-path="url(#terminal-753359632-line-21)">
</text><text class="terminal-753359632-r2" x="24.4" y="556.8" textLength="12.2" clip-path="url(#terminal-753359632-line-22)">│</text><text class="terminal-753359632-r4" x="48.8" y="556.8" textLength="12.2" clip-path="url(#terminal-753359632-line-22)">▊</text><text class="terminal-753359632-r5" x="61" y="556.8" textLength="854" clip-path="url(#terminal-753359632-line-22)">▁▁▁▁▁▁▁▁▁▁▁▁▁▁▁▁▁▁▁▁▁▁▁▁▁▁▁▁▁▁▁▁▁▁▁▁▁▁▁▁▁▁▁▁▁▁▁▁▁▁▁▁▁▁▁▁▁▁▁▁▁▁▁▁▁▁▁▁▁▁</text><text class="terminal-753359632-r5" x="915" y="556.8" textLength="12.2" clip-path="url(#terminal-753359632-line-22)">▎</text><text class="terminal-753359632-r2" x="939.4" y="556.8" textLength="12.2" clip-path="url(#terminal-753359632-line-22)">│</text><text class="terminal-753359632-r1" x="976" y="556.8" textLength="12.2" clip-path="url(#terminal-753359632-line-22)">
</text><text class="terminal-753359632-r2" x="24.4" y="581.2" textLength="12.2" clip-path="url(#terminal-753359632-line-23)">│</text><text class="terminal-753359632-r11" x="48.8" y="581.2" textLength="317.2" clip-path="url(#terminal-753359632-line-23)">context&#160;32,000&#160;·&#160;tools&#160;yes</text><text class="terminal-753359632-r2" x="939.4" y="581.2" textLength="12.2" clip-path="url(#terminal-753359632-line-23)">│</text><text class="terminal-753359632-r1" x="976" y="581.2" textLength="12.2" clip-path="url(#terminal-753359632-line-23)">
</text><text class="terminal-753359632-r2" x="24.4" y="605.6" textLength="12.2" clip-path="url(#terminal-753359632-line-24)">│</text><text class="terminal-753359632-r2" x="48.8" y="605.6" textLength="695.4" clip-path="url(#terminal-753359632-line-24)">↑↓&#160;choose&#160;·&#160;Enter&#160;select&#160;·&#160;Shift+Tab&#160;provider&#160;·&#160;Esc&#160;close</text><text class="terminal-753359632-r2" x="939.4" y="605.6" textLength="12.2" clip-path="url(#terminal-753359632-line-24)">│</text><text class="terminal-753359632-r1" x="976" y="605.6" textLength="12.2" clip-path="url(#terminal-753359632-line-24)">
</text><text class="terminal-753359632-r2" x="24.4" y="630" textLength="12.2" clip-path="url(#terminal-753359632-line-25)">╰</text><text class="terminal-753359632-r2" x="36.6" y="630" textLength="902.8" clip-path="url(#terminal-753359632-line-25)">──────────────────────────────────────────────────────────────────────────</text><text class="terminal-753359632-r2" x="939.4" y="630" textLength="12.2" clip-path="url(#terminal-753359632-line-25)">╯</text><text class="terminal-753359632-r1" x="976" y="630" textLength="12.2" clip-path="url(#terminal-753359632-line-25)">
</text><text class="terminal-753359632-r1" x="976" y="654.4" textLength="12.2" clip-path="url(#terminal-753359632-line-26)">
</text>
    </g>
    </g>
</svg>
